<svg width="47" height="52" viewBox="0 0 47 52" fill="none" xmlns="http://www.w3.org/2000/svg">
<g clip-path="url(#clip0_0_1)">
<path d="M40.5583 9.8488C40.5227 9.5905 40.296 9.44721 40.1078 9.43161C39.921 9.41601 36.2622 9.36068 36.2622 9.36068C36.2622 9.36068 33.2022 6.40346 32.8999 6.10263C32.5977 5.8018 32.0074 5.89261 31.7778 5.96073C31.775 5.96215 31.2032 6.13811 30.2407 6.43468C30.0796 5.91532 29.8428 5.27676 29.5049 4.63537C28.4156 2.56646 26.82 1.47241 24.8922 1.46958C24.8894 1.46958 24.8879 1.46958 24.8851 1.46958C24.751 1.46958 24.6184 1.48235 24.4844 1.4937C24.4274 1.42558 24.3703 1.3589 24.3105 1.29362C23.4706 0.399646 22.3941 -0.0359892 21.1037 0.0023239C18.6141 0.0732742 16.1345 1.86264 14.124 5.04121C12.7095 7.27756 11.6329 10.0872 11.3278 12.2625C8.46892 13.1437 6.46983 13.7595 6.42563 13.7738C4.98264 14.225 4.93702 14.269 4.7488 15.6228C4.60906 16.6458 0.833328 45.7014 0.833328 45.7014L32.4751 51.1475L46.1891 47.7547C46.1891 47.7547 40.594 10.1071 40.5583 9.8488ZM28.6565 6.92281C27.9279 7.14702 27.0994 7.40244 26.2011 7.67915C26.1826 6.42475 26.0329 4.67937 25.4454 3.17096C27.3347 3.52713 28.2644 5.65422 28.6565 6.92281ZM24.5457 8.18998C22.8874 8.70079 21.078 9.25847 19.2628 9.8176C19.7733 7.87213 20.7415 5.93519 21.9307 4.66518C22.3727 4.19265 22.9915 3.6662 23.7244 3.36536C24.4131 4.79572 24.5628 6.82064 24.5457 8.18998ZM21.1535 1.6512C21.7381 1.63843 22.2301 1.76615 22.6507 2.04143C21.9777 2.38909 21.3275 2.88858 20.7172 3.5399C19.1359 5.22852 17.9239 7.84943 17.4405 10.3781C15.9334 10.8421 14.459 11.2976 13.1016 11.7148C13.9586 7.73449 17.3108 1.76189 21.1535 1.6512Z" fill="#95BF47"/>
<path d="M40.1091 9.43305C39.9224 9.41745 36.2636 9.36213 36.2636 9.36213C36.2636 9.36213 33.2037 6.4049 32.9014 6.10407C32.7887 5.99196 32.6362 5.93378 32.4764 5.90967L32.4779 51.1462L46.1906 47.7548C46.1906 47.7548 40.5954 10.1085 40.5598 9.85025C40.5241 9.59195 40.296 9.44865 40.1091 9.43305Z" fill="#5E8D3E"/>
<path d="M24.875 16.4501L23.2824 22.38C23.2824 22.38 21.5057 21.5755 19.3997 21.7074C16.3112 21.9019 16.2784 23.8402 16.3098 24.327C16.4781 26.979 23.4891 27.558 23.8827 33.7704C24.1921 38.6575 21.2775 42.0007 17.0784 42.2646C12.0378 42.581 9.26309 39.6224 9.26309 39.6224L10.3311 35.1014C10.3311 35.1014 13.1243 37.1987 15.3601 37.0583C16.8203 36.966 17.3421 35.784 17.2893 34.9482C17.0698 31.4886 11.3605 31.693 10.9998 26.0084C10.6961 21.225 13.853 16.3777 20.8184 15.9406C23.5019 15.769 24.875 16.4501 24.875 16.4501Z" fill="black"/>
</g>
<defs>
<clipPath id="clip0_0_1">
<rect width="47" height="52" fill="white"/>
</clipPath>
</defs>
</svg>
